<mxfile host="app.diagrams.net" modified="2023-09-11T08:26:06.970Z" agent="Mozilla/5.0 (Windows NT 10.0; Win64; x64; rv:109.0) Gecko/20100101 Firefox/117.0" etag="Nx_Nt9PUP1PCmjSM5UXe" version="21.7.2" type="device">
  <diagram name="Page-1" id="6JFIBH9YuIDmsNJ-3Yc6">
    <mxGraphModel dx="1434" dy="754" grid="1" gridSize="10" guides="1" tooltips="1" connect="1" arrows="1" fold="1" page="1" pageScale="1" pageWidth="850" pageHeight="1100" math="0" shadow="0">
      <root>
        <mxCell id="0" />
        <mxCell id="1" parent="0" />
        <mxCell id="UTOgaHd0Tm8setHXCSNj-1" value="email" style="ellipse;whiteSpace=wrap;html=1;" vertex="1" parent="1">
          <mxGeometry x="80" y="230" width="100" height="50" as="geometry" />
        </mxCell>
        <mxCell id="UTOgaHd0Tm8setHXCSNj-2" value="username" style="ellipse;whiteSpace=wrap;html=1;" vertex="1" parent="1">
          <mxGeometry x="200" y="300" width="100" height="50" as="geometry" />
        </mxCell>
        <mxCell id="UTOgaHd0Tm8setHXCSNj-3" value="user" style="rounded=0;whiteSpace=wrap;html=1;" vertex="1" parent="1">
          <mxGeometry x="200" y="230" width="100" height="50" as="geometry" />
        </mxCell>
        <mxCell id="UTOgaHd0Tm8setHXCSNj-4" value="creates" style="rhombus;whiteSpace=wrap;html=1;" vertex="1" parent="1">
          <mxGeometry x="380" y="230" width="120" height="50" as="geometry" />
        </mxCell>
        <mxCell id="UTOgaHd0Tm8setHXCSNj-5" value="pokemon" style="rounded=0;whiteSpace=wrap;html=1;" vertex="1" parent="1">
          <mxGeometry x="570" y="230" width="100" height="50" as="geometry" />
        </mxCell>
        <mxCell id="UTOgaHd0Tm8setHXCSNj-6" value="N" style="endArrow=none;html=1;rounded=0;exitX=1;exitY=0.5;exitDx=0;exitDy=0;entryX=0;entryY=0.5;entryDx=0;entryDy=0;" edge="1" parent="1" source="UTOgaHd0Tm8setHXCSNj-3" target="UTOgaHd0Tm8setHXCSNj-4">
          <mxGeometry width="50" height="50" relative="1" as="geometry">
            <mxPoint x="350" y="370" as="sourcePoint" />
            <mxPoint x="400" y="320" as="targetPoint" />
          </mxGeometry>
        </mxCell>
        <mxCell id="UTOgaHd0Tm8setHXCSNj-8" value="M" style="endArrow=none;html=1;rounded=0;exitX=0;exitY=0.5;exitDx=0;exitDy=0;entryX=1;entryY=0.5;entryDx=0;entryDy=0;" edge="1" parent="1" source="UTOgaHd0Tm8setHXCSNj-5" target="UTOgaHd0Tm8setHXCSNj-4">
          <mxGeometry width="50" height="50" relative="1" as="geometry">
            <mxPoint x="310" y="265" as="sourcePoint" />
            <mxPoint x="350" y="265" as="targetPoint" />
          </mxGeometry>
        </mxCell>
        <mxCell id="UTOgaHd0Tm8setHXCSNj-9" value="" style="endArrow=none;html=1;rounded=0;exitX=0.5;exitY=1;exitDx=0;exitDy=0;entryX=0.5;entryY=0;entryDx=0;entryDy=0;" edge="1" parent="1" source="UTOgaHd0Tm8setHXCSNj-3" target="UTOgaHd0Tm8setHXCSNj-2">
          <mxGeometry width="50" height="50" relative="1" as="geometry">
            <mxPoint x="310" y="265" as="sourcePoint" />
            <mxPoint x="350" y="265" as="targetPoint" />
          </mxGeometry>
        </mxCell>
        <mxCell id="UTOgaHd0Tm8setHXCSNj-10" value="" style="endArrow=none;html=1;rounded=0;exitX=1;exitY=0.5;exitDx=0;exitDy=0;entryX=0;entryY=0.5;entryDx=0;entryDy=0;" edge="1" parent="1" source="UTOgaHd0Tm8setHXCSNj-1" target="UTOgaHd0Tm8setHXCSNj-3">
          <mxGeometry width="50" height="50" relative="1" as="geometry">
            <mxPoint x="260" y="290" as="sourcePoint" />
            <mxPoint x="260" y="310" as="targetPoint" />
          </mxGeometry>
        </mxCell>
        <mxCell id="UTOgaHd0Tm8setHXCSNj-12" value="contains" style="rhombus;whiteSpace=wrap;html=1;" vertex="1" parent="1">
          <mxGeometry x="730" y="230" width="120" height="50" as="geometry" />
        </mxCell>
        <mxCell id="UTOgaHd0Tm8setHXCSNj-13" value="M" style="endArrow=none;html=1;rounded=0;exitX=1;exitY=0.5;exitDx=0;exitDy=0;entryX=0;entryY=0.5;entryDx=0;entryDy=0;" edge="1" parent="1" source="UTOgaHd0Tm8setHXCSNj-5" target="UTOgaHd0Tm8setHXCSNj-12">
          <mxGeometry width="50" height="50" relative="1" as="geometry">
            <mxPoint x="580" y="265" as="sourcePoint" />
            <mxPoint x="540" y="265" as="targetPoint" />
          </mxGeometry>
        </mxCell>
        <mxCell id="UTOgaHd0Tm8setHXCSNj-14" value="team" style="rounded=0;whiteSpace=wrap;html=1;" vertex="1" parent="1">
          <mxGeometry x="900" y="230" width="100" height="50" as="geometry" />
        </mxCell>
        <mxCell id="UTOgaHd0Tm8setHXCSNj-16" value="N" style="endArrow=none;html=1;rounded=0;exitX=1;exitY=0.5;exitDx=0;exitDy=0;entryX=0;entryY=0.5;entryDx=0;entryDy=0;" edge="1" parent="1" source="UTOgaHd0Tm8setHXCSNj-12" target="UTOgaHd0Tm8setHXCSNj-14">
          <mxGeometry width="50" height="50" relative="1" as="geometry">
            <mxPoint x="330" y="290" as="sourcePoint" />
            <mxPoint x="330" y="310" as="targetPoint" />
          </mxGeometry>
        </mxCell>
        <mxCell id="UTOgaHd0Tm8setHXCSNj-17" value="format" style="ellipse;whiteSpace=wrap;html=1;" vertex="1" parent="1">
          <mxGeometry x="900" y="150" width="100" height="50" as="geometry" />
        </mxCell>
        <mxCell id="UTOgaHd0Tm8setHXCSNj-19" value="nature" style="ellipse;whiteSpace=wrap;html=1;" vertex="1" parent="1">
          <mxGeometry x="450" y="150" width="100" height="50" as="geometry" />
        </mxCell>
        <mxCell id="UTOgaHd0Tm8setHXCSNj-20" value="moves" style="ellipse;whiteSpace=wrap;html=1;" vertex="1" parent="1">
          <mxGeometry x="330" y="150" width="100" height="50" as="geometry" />
        </mxCell>
        <mxCell id="UTOgaHd0Tm8setHXCSNj-21" value="" style="endArrow=none;html=1;rounded=0;exitX=0;exitY=0;exitDx=0;exitDy=0;entryX=0.5;entryY=1;entryDx=0;entryDy=0;" edge="1" parent="1" source="UTOgaHd0Tm8setHXCSNj-4" target="UTOgaHd0Tm8setHXCSNj-20">
          <mxGeometry width="50" height="50" relative="1" as="geometry">
            <mxPoint x="310" y="265" as="sourcePoint" />
            <mxPoint x="390" y="265" as="targetPoint" />
          </mxGeometry>
        </mxCell>
        <mxCell id="UTOgaHd0Tm8setHXCSNj-22" value="" style="endArrow=none;html=1;rounded=0;exitX=1;exitY=0;exitDx=0;exitDy=0;entryX=0.5;entryY=1;entryDx=0;entryDy=0;" edge="1" parent="1" source="UTOgaHd0Tm8setHXCSNj-4" target="UTOgaHd0Tm8setHXCSNj-19">
          <mxGeometry width="50" height="50" relative="1" as="geometry">
            <mxPoint x="420" y="253" as="sourcePoint" />
            <mxPoint x="390" y="210" as="targetPoint" />
          </mxGeometry>
        </mxCell>
        <mxCell id="UTOgaHd0Tm8setHXCSNj-23" value="ivs" style="ellipse;whiteSpace=wrap;html=1;" vertex="1" parent="1">
          <mxGeometry x="330" y="300" width="100" height="50" as="geometry" />
        </mxCell>
        <mxCell id="UTOgaHd0Tm8setHXCSNj-24" value="" style="endArrow=none;html=1;rounded=0;exitX=0.5;exitY=0;exitDx=0;exitDy=0;entryX=0;entryY=1;entryDx=0;entryDy=0;" edge="1" parent="1" source="UTOgaHd0Tm8setHXCSNj-23" target="UTOgaHd0Tm8setHXCSNj-4">
          <mxGeometry width="50" height="50" relative="1" as="geometry">
            <mxPoint x="420" y="253" as="sourcePoint" />
            <mxPoint x="390" y="210" as="targetPoint" />
          </mxGeometry>
        </mxCell>
        <mxCell id="UTOgaHd0Tm8setHXCSNj-25" value="held item" style="ellipse;whiteSpace=wrap;html=1;" vertex="1" parent="1">
          <mxGeometry x="450" y="300" width="100" height="50" as="geometry" />
        </mxCell>
        <mxCell id="UTOgaHd0Tm8setHXCSNj-26" value="" style="endArrow=none;html=1;rounded=0;exitX=0.5;exitY=0;exitDx=0;exitDy=0;entryX=1;entryY=1;entryDx=0;entryDy=0;" edge="1" parent="1" source="UTOgaHd0Tm8setHXCSNj-25" target="UTOgaHd0Tm8setHXCSNj-4">
          <mxGeometry width="50" height="50" relative="1" as="geometry">
            <mxPoint x="390" y="310" as="sourcePoint" />
            <mxPoint x="420" y="278" as="targetPoint" />
          </mxGeometry>
        </mxCell>
        <mxCell id="UTOgaHd0Tm8setHXCSNj-28" value="" style="endArrow=none;html=1;rounded=0;exitX=0.5;exitY=1;exitDx=0;exitDy=0;entryX=0.5;entryY=0;entryDx=0;entryDy=0;" edge="1" parent="1" source="UTOgaHd0Tm8setHXCSNj-17" target="UTOgaHd0Tm8setHXCSNj-14">
          <mxGeometry width="50" height="50" relative="1" as="geometry">
            <mxPoint x="860" y="265" as="sourcePoint" />
            <mxPoint x="910" y="265" as="targetPoint" />
          </mxGeometry>
        </mxCell>
      </root>
    </mxGraphModel>
  </diagram>
</mxfile>
